<svg xmlns="http://www.w3.org/2000/svg" viewBox="0 0 435.5 426.92"><defs><style>.cls-1{fill:none;stroke:#231f20;stroke-miterlimit:10;}</style></defs><g id="reverse"><path class="cls-1" d="M281.18,570.09c5.67,8.62,16.87,25.29,33.85,36.65,21.87,14.63,41.22,20.18,52.19,21.27" transform="translate(-75.82 -213.95)"/><path class="cls-1" d="M291.83,571.1a116.4,116.4,0,0,0,87.71,52.06" transform="translate(-75.82 -213.95)"/><path class="cls-1" d="M301.1,570.6a118.73,118.73,0,0,0,90.65,46.95" transform="translate(-75.82 -213.95)"/><path class="cls-1" d="M310.36,569.66a118.87,118.87,0,0,0,96.13,39.84" transform="translate(-75.82 -213.95)"/><path class="cls-1" d="M321.49,568a116.95,116.95,0,0,0,95.59,34.77" transform="translate(-75.82 -213.95)"/><path class="cls-1" d="M331.63,565.68a111.32,111.32,0,0,0,43.8,25.46,114.1,114.1,0,0,0,53,3.4" transform="translate(-75.82 -213.95)"/><path class="cls-1" d="M341.17,562.82a108.72,108.72,0,0,0,99.17,21.72" transform="translate(-75.82 -213.95)"/><path class="cls-1" d="M349.6,559.67a111,111,0,0,0,100.19,15.85" transform="translate(-75.82 -213.95)"/><path class="cls-1" d="M357.89,556a109.05,109.05,0,0,0,103,7.43" transform="translate(-75.82 -213.95)"/><path class="cls-1" d="M366.49,551.49a118.5,118.5,0,0,0,101.52,3" transform="translate(-75.82 -213.95)"/><path class="cls-1" d="M374.66,546.51a111.12,111.12,0,0,0,101.77-3.93" transform="translate(-75.82 -213.95)"/><path class="cls-1" d="M382.2,541.21A107.3,107.3,0,0,0,485,528.33" transform="translate(-75.82 -213.95)"/><path class="cls-1" d="M388.68,536.06a113.51,113.51,0,0,0,100.84-16.43" transform="translate(-75.82 -213.95)"/><path class="cls-1" d="M394.94,530.47a112.76,112.76,0,0,0,100.3-23.53" transform="translate(-75.82 -213.95)"/><path class="cls-1" d="M402.07,523.23a108.41,108.41,0,0,0,98.42-30.54" transform="translate(-75.82 -213.95)"/><path class="cls-1" d="M408.28,516A112.56,112.56,0,0,0,504.22,480" transform="translate(-75.82 -213.95)"/><path class="cls-1" d="M413.89,508.56A110,110,0,0,0,507.33,466" transform="translate(-75.82 -213.95)"/><path class="cls-1" d="M419,500.78A111.17,111.17,0,0,0,509.33,453" transform="translate(-75.82 -213.95)"/><path class="cls-1" d="M423.57,492.69a110.8,110.8,0,0,0,87-54" transform="translate(-75.82 -213.95)"/><path class="cls-1" d="M427.79,483.89a111.88,111.88,0,0,0,83.08-57.53" transform="translate(-75.82 -213.95)"/><path class="cls-1" d="M431.76,473.81a109,109,0,0,0,78.44-63.34" transform="translate(-75.82 -213.95)"/><path class="cls-1" d="M434.44,465.26a116.61,116.61,0,0,0,37.82-19.57,118.37,118.37,0,0,0,36.46-48.41" transform="translate(-75.82 -213.95)"/><path class="cls-1" d="M436.65,456.14a112.9,112.9,0,0,0,69.42-73.49" transform="translate(-75.82 -213.95)"/><path class="cls-1" d="M438.24,446.94A108.66,108.66,0,0,0,471.63,425c21.57-20.81,28.58-45.12,31-56" transform="translate(-75.82 -213.95)"/><path class="cls-1" d="M439.14,438.73a120.66,120.66,0,0,0,60.31-79.67" transform="translate(-75.82 -213.95)"/><path class="cls-1" d="M439.59,427.42a109.49,109.49,0,0,0,30.83-25.74,111.68,111.68,0,0,0,24.1-55.49" transform="translate(-75.82 -213.95)"/><path class="cls-1" d="M439.59,419.4a122.92,122.92,0,0,0,28.71-28.48,124.26,124.26,0,0,0,21.85-54.42" transform="translate(-75.82 -213.95)"/><path class="cls-1" d="M438.58,410.47a121.29,121.29,0,0,0,45.05-86.42" transform="translate(-75.82 -213.95)"/><path class="cls-1" d="M437.46,402.91A132.77,132.77,0,0,0,461,371.83a134.48,134.48,0,0,0,16.19-58.38" transform="translate(-75.82 -213.95)"/><path class="cls-1" d="M436,395.8a133,133,0,0,0,34.41-92.21" transform="translate(-75.82 -213.95)"/><path class="cls-1" d="M432.87,384.34a111.46,111.46,0,0,0,20.48-31.48,114.13,114.13,0,0,0,7.76-61.15" transform="translate(-75.82 -213.95)"/><path class="cls-1" d="M429.53,375.09a108.76,108.76,0,0,0,22.62-93.35" transform="translate(-75.82 -213.95)"/><path class="cls-1" d="M426.44,368a112.46,112.46,0,0,0,15-96.66" transform="translate(-75.82 -213.95)"/><path class="cls-1" d="M421.91,359.06a113.81,113.81,0,0,0,11-95.18" transform="translate(-75.82 -213.95)"/><path class="cls-1" d="M417.61,351.83a133.44,133.44,0,0,0,6.16-95" transform="translate(-75.82 -213.95)"/><path class="cls-1" d="M411.65,343.18a122.48,122.48,0,0,0,1.16-93.91" transform="translate(-75.82 -213.95)"/><path class="cls-1" d="M406.37,336.5a134.06,134.06,0,0,0-6.26-94.83" transform="translate(-75.82 -213.95)"/><path class="cls-1" d="M400.11,329.51a131.49,131.49,0,0,0-13.48-94.69" transform="translate(-75.82 -213.95)"/><path class="cls-1" d="M393.94,323.42a132.83,132.83,0,0,0-19.05-93.65" transform="translate(-75.82 -213.95)"/><path class="cls-1" d="M386.63,317.08a123.72,123.72,0,0,0-24.75-92" transform="translate(-75.82 -213.95)"/><path class="cls-1" d="M378.72,311.09a117,117,0,0,0-30-89.81" transform="translate(-75.82 -213.95)"/><path class="cls-1" d="M372.44,306.91A127.41,127.41,0,0,0,335,218.21" transform="translate(-75.82 -213.95)"/><path class="cls-1" d="M364,302a132.14,132.14,0,0,0-41.61-85.76" transform="translate(-75.82 -213.95)"/><path class="cls-1" d="M355.38,297.67a142,142,0,0,0-45.61-82.74" transform="translate(-75.82 -213.95)"/><path class="cls-1" d="M347.36,294.27A137.2,137.2,0,0,0,296,214.35" transform="translate(-75.82 -213.95)"/><path class="cls-1" d="M338.7,291.22a109.38,109.38,0,0,0-61.35-76.29" transform="translate(-75.82 -213.95)"/><path class="cls-1" d="M330.39,288.83a123.56,123.56,0,0,0-65.66-72.62" transform="translate(-75.82 -213.95)"/><path class="cls-1" d="M321.66,286.89a121.48,121.48,0,0,0-71.14-68.36" transform="translate(-75.82 -213.95)"/><path class="cls-1" d="M313.4,285.55a120.1,120.1,0,0,0-75-64.27" transform="translate(-75.82 -213.95)"/><path class="cls-1" d="M303.73,284.58a113.42,113.42,0,0,0-79.6-59.12" transform="translate(-75.82 -213.95)"/><path class="cls-1" d="M293.56,284.24a105.7,105.7,0,0,0-83.89-53.43" transform="translate(-75.82 -213.95)"/><path class="cls-1" d="M284.82,284.5a113.47,113.47,0,0,0-88.43-47.71" transform="translate(-75.82 -213.95)"/><path class="cls-1" d="M275.89,285.28a127.41,127.41,0,0,0-92.54-41.54" transform="translate(-75.82 -213.95)"/><path class="cls-1" d="M268.4,286.36a130.67,130.67,0,0,0-97.89-34.58" transform="translate(-75.82 -213.95)"/><path class="cls-1" d="M258.69,288.35A130.61,130.61,0,0,0,161,258.55" transform="translate(-75.82 -213.95)"/><path class="cls-1" d="M248.8,291.09A129.6,129.6,0,0,0,149.4,268" transform="translate(-75.82 -213.95)"/><path class="cls-1" d="M241.24,293.71A139.07,139.07,0,0,0,140,276.65" transform="translate(-75.82 -213.95)"/><path class="cls-1" d="M232.11,297.5a122.11,122.11,0,0,0-105.56-6.41" transform="translate(-75.82 -213.95)"/><path class="cls-1" d="M222.55,302.28a118.89,118.89,0,0,0-106.24,1.84" transform="translate(-75.82 -213.95)"/><path class="cls-1" d="M214,307.34a119.62,119.62,0,0,0-105.15,7.78" transform="translate(-75.82 -213.95)"/><path class="cls-1" d="M208.36,311.13a135.23,135.23,0,0,0-106.11,15.15" transform="translate(-75.82 -213.95)"/><path class="cls-1" d="M199.83,317.63A125.74,125.74,0,0,0,95.33,340" transform="translate(-75.82 -213.95)"/><path class="cls-1" d="M193.67,323A140.2,140.2,0,0,0,88.84,355.79" transform="translate(-75.82 -213.95)"/><path class="cls-1" d="M186.46,330.09A140.19,140.19,0,0,0,84.33,369.66" transform="translate(-75.82 -213.95)"/><path class="cls-1" d="M179.33,338.22a131.46,131.46,0,0,0-98.79,46.89" transform="translate(-75.82 -213.95)"/><path class="cls-1" d="M173.12,346.44A128.12,128.12,0,0,0,78,400.19" transform="translate(-75.82 -213.95)"/><path class="cls-1" d="M168,354.37a125.42,125.42,0,0,0-91.39,61.57" transform="translate(-75.82 -213.95)"/><path class="cls-1" d="M162.67,363.88A124.34,124.34,0,0,0,76.56,430.3" transform="translate(-75.82 -213.95)"/><path class="cls-1" d="M158.32,373.32A119.36,119.36,0,0,0,77.46,450" transform="translate(-75.82 -213.95)"/><path class="cls-1" d="M154.62,383.23a124.47,124.47,0,0,0-75,81.61" transform="translate(-75.82 -213.95)"/><path class="cls-1" d="M152,392.2a124.16,124.16,0,0,0-69.21,87.25" transform="translate(-75.82 -213.95)"/><path class="cls-1" d="M149.85,401.9a124.42,124.42,0,0,0-63.49,89.93" transform="translate(-75.82 -213.95)"/><path class="cls-1" d="M148.41,411.64a121.8,121.8,0,0,0-57,94.05" transform="translate(-75.82 -213.95)"/><path class="cls-1" d="M148.41,421.41A118.49,118.49,0,0,0,97,518.4" transform="translate(-75.82 -213.95)"/><path class="cls-1" d="M147.61,431.93a123.39,123.39,0,0,0-43.47,100" transform="translate(-75.82 -213.95)"/><path class="cls-1" d="M148.27,441.82a129.29,129.29,0,0,0-38.18,99.83" transform="translate(-75.82 -213.95)"/><path class="cls-1" d="M149.85,450a126.08,126.08,0,0,0-32.47,102.21" transform="translate(-75.82 -213.95)"/><path class="cls-1" d="M151.2,459.44a125.69,125.69,0,0,0-24.06,105" transform="translate(-75.82 -213.95)"/><path class="cls-1" d="M154.07,469.9A123.94,123.94,0,0,0,134.5,572.6" transform="translate(-75.82 -213.95)"/><path class="cls-1" d="M157.48,479.45A121.39,121.39,0,0,0,145.7,583.56" transform="translate(-75.82 -213.95)"/><path class="cls-1" d="M161.49,488.57A117.15,117.15,0,0,0,156,592.39" transform="translate(-75.82 -213.95)"/><path class="cls-1" d="M165.52,496.3A130.72,130.72,0,0,0,164,598.47" transform="translate(-75.82 -213.95)"/><path class="cls-1" d="M170.59,504.67a114.57,114.57,0,0,0-8.72,45.69,115.84,115.84,0,0,0,16.95,58" transform="translate(-75.82 -213.95)"/><path class="cls-1" d="M176.73,513.33a113.45,113.45,0,0,0,14.94,102.33" transform="translate(-75.82 -213.95)"/><path class="cls-1" d="M182.3,520.15a134.66,134.66,0,0,0,22.86,102" transform="translate(-75.82 -213.95)"/><path class="cls-1" d="M190,528.32a124.51,124.51,0,0,0,26.81,98.48" transform="translate(-75.82 -213.95)"/><path class="cls-1" d="M197.45,535.21a121.84,121.84,0,0,0,34.94,96.72" transform="translate(-75.82 -213.95)"/><path class="cls-1" d="M205.16,541.39a116.11,116.11,0,0,0,40.79,94" transform="translate(-75.82 -213.95)"/><path class="cls-1" d="M212.13,546.28a126.9,126.9,0,0,0,45.41,91.3" transform="translate(-75.82 -213.95)"/><path class="cls-1" d="M220.64,551.49a120.33,120.33,0,0,0,51.25,88" transform="translate(-75.82 -213.95)"/><path class="cls-1" d="M230.37,556.53a104.68,104.68,0,0,0,57.82,83.9" transform="translate(-75.82 -213.95)"/><path class="cls-1" d="M238.37,560A113.93,113.93,0,0,0,300,640.4" transform="translate(-75.82 -213.95)"/><path class="cls-1" d="M247,562.82a119.65,119.65,0,0,0,63.34,77" transform="translate(-75.82 -213.95)"/><path class="cls-1" d="M255.5,565.68a116.23,116.23,0,0,0,70.06,72.52" transform="translate(-75.82 -213.95)"/><path class="cls-1" d="M264,567.66a113.87,113.87,0,0,0,75.59,68" transform="translate(-75.82 -213.95)"/><path class="cls-1" d="M273.3,569.23a116.91,116.91,0,0,0,80.43,63" transform="translate(-75.82 -213.95)"/></g><g id="Layer_1" data-name="Layer 1"><path class="cls-1" d="M305.94,570.09c-5.66,8.62-16.86,25.29-33.84,36.65-21.87,14.63-41.22,20.18-52.19,21.27" transform="translate(-75.82 -213.95)"/><path class="cls-1" d="M295.3,571.1a116.4,116.4,0,0,1-87.72,52.06" transform="translate(-75.82 -213.95)"/><path class="cls-1" d="M286,570.6a118.77,118.77,0,0,1-90.65,46.95" transform="translate(-75.82 -213.95)"/><path class="cls-1" d="M276.77,569.66a118.87,118.87,0,0,1-96.14,39.84" transform="translate(-75.82 -213.95)"/><path class="cls-1" d="M265.64,568A117,117,0,0,1,170,602.75" transform="translate(-75.82 -213.95)"/><path class="cls-1" d="M255.5,565.68a111.32,111.32,0,0,1-43.8,25.46,114.1,114.1,0,0,1-53,3.4" transform="translate(-75.82 -213.95)"/><path class="cls-1" d="M246,562.82a108.72,108.72,0,0,1-99.17,21.72" transform="translate(-75.82 -213.95)"/><path class="cls-1" d="M237.52,559.67a111,111,0,0,1-100.19,15.85" transform="translate(-75.82 -213.95)"/><path class="cls-1" d="M229.24,556a109.05,109.05,0,0,1-103,7.43" transform="translate(-75.82 -213.95)"/><path class="cls-1" d="M220.64,551.49a118.5,118.5,0,0,1-101.52,3" transform="translate(-75.82 -213.95)"/><path class="cls-1" d="M212.47,546.51a111.14,111.14,0,0,1-101.78-3.93" transform="translate(-75.82 -213.95)"/><path class="cls-1" d="M204.92,541.21a107.29,107.29,0,0,1-102.8-12.88" transform="translate(-75.82 -213.95)"/><path class="cls-1" d="M198.45,536.06A113.54,113.54,0,0,1,97.6,519.63" transform="translate(-75.82 -213.95)"/><path class="cls-1" d="M192.19,530.47a112.76,112.76,0,0,1-100.3-23.53" transform="translate(-75.82 -213.95)"/><path class="cls-1" d="M185.06,523.23a108.41,108.41,0,0,1-98.42-30.54" transform="translate(-75.82 -213.95)"/><path class="cls-1" d="M178.85,516A112.56,112.56,0,0,1,82.91,480" transform="translate(-75.82 -213.95)"/><path class="cls-1" d="M173.24,508.56A110,110,0,0,1,79.8,466" transform="translate(-75.82 -213.95)"/><path class="cls-1" d="M168.13,500.78A111.17,111.17,0,0,1,77.8,453" transform="translate(-75.82 -213.95)"/><path class="cls-1" d="M163.56,492.69a110.8,110.8,0,0,1-87-54" transform="translate(-75.82 -213.95)"/><path class="cls-1" d="M159.33,483.89a111.89,111.89,0,0,1-83.07-57.53" transform="translate(-75.82 -213.95)"/><path class="cls-1" d="M155.37,473.81a109,109,0,0,1-78.44-63.34" transform="translate(-75.82 -213.95)"/><path class="cls-1" d="M152.69,465.26a116.61,116.61,0,0,1-37.82-19.57,118.37,118.37,0,0,1-36.46-48.41" transform="translate(-75.82 -213.95)"/><path class="cls-1" d="M150.48,456.14a112.9,112.9,0,0,1-69.42-73.49" transform="translate(-75.82 -213.95)"/><path class="cls-1" d="M148.88,446.94A108.76,108.76,0,0,1,115.5,425c-21.57-20.81-28.58-45.12-31-56" transform="translate(-75.82 -213.95)"/><path class="cls-1" d="M148,438.73a120.66,120.66,0,0,1-60.31-79.67" transform="translate(-75.82 -213.95)"/><path class="cls-1" d="M147.54,427.42a109.49,109.49,0,0,1-30.83-25.74A111.72,111.72,0,0,1,92.6,346.19" transform="translate(-75.82 -213.95)"/><path class="cls-1" d="M147.54,419.4a122.92,122.92,0,0,1-28.71-28.48A124.31,124.31,0,0,1,97,336.5" transform="translate(-75.82 -213.95)"/><path class="cls-1" d="M148.55,410.47a121.48,121.48,0,0,1-27.29-30.92,122.89,122.89,0,0,1-17.77-55.5" transform="translate(-75.82 -213.95)"/><path class="cls-1" d="M149.67,402.91a132.77,132.77,0,0,1-23.56-31.08,134.48,134.48,0,0,1-16.19-58.38" transform="translate(-75.82 -213.95)"/><path class="cls-1" d="M151.11,395.8a133,133,0,0,1-34.41-92.21" transform="translate(-75.82 -213.95)"/><path class="cls-1" d="M154.26,384.34a111.46,111.46,0,0,1-20.48-31.48A114.13,114.13,0,0,1,126,291.71" transform="translate(-75.82 -213.95)"/><path class="cls-1" d="M157.6,375.09A108.76,108.76,0,0,1,135,281.74" transform="translate(-75.82 -213.95)"/><path class="cls-1" d="M160.68,368a112.51,112.51,0,0,1-15-96.66" transform="translate(-75.82 -213.95)"/><path class="cls-1" d="M165.22,359.06a113.81,113.81,0,0,1-11-95.18" transform="translate(-75.82 -213.95)"/><path class="cls-1" d="M169.52,351.83a133.44,133.44,0,0,1-6.16-95" transform="translate(-75.82 -213.95)"/><path class="cls-1" d="M175.47,343.18a122.6,122.6,0,0,1-1.16-93.91" transform="translate(-75.82 -213.95)"/><path class="cls-1" d="M180.75,336.5A134.14,134.14,0,0,1,187,241.67" transform="translate(-75.82 -213.95)"/><path class="cls-1" d="M187,329.51a131.49,131.49,0,0,1,13.48-94.69" transform="translate(-75.82 -213.95)"/><path class="cls-1" d="M193.19,323.42a132.7,132.7,0,0,1,19.05-93.65" transform="translate(-75.82 -213.95)"/><path class="cls-1" d="M200.5,317.08a123.72,123.72,0,0,1,24.75-92" transform="translate(-75.82 -213.95)"/><path class="cls-1" d="M208.41,311.09a117,117,0,0,1,30-89.81" transform="translate(-75.82 -213.95)"/><path class="cls-1" d="M214.69,306.91a127.41,127.41,0,0,1,37.46-88.7" transform="translate(-75.82 -213.95)"/><path class="cls-1" d="M223.14,302a132.14,132.14,0,0,1,41.61-85.76" transform="translate(-75.82 -213.95)"/><path class="cls-1" d="M231.75,297.67a142,142,0,0,1,45.61-82.74" transform="translate(-75.82 -213.95)"/><path class="cls-1" d="M239.77,294.27a137.2,137.2,0,0,1,51.4-79.92" transform="translate(-75.82 -213.95)"/><path class="cls-1" d="M248.43,291.22a109.38,109.38,0,0,1,61.35-76.29" transform="translate(-75.82 -213.95)"/><path class="cls-1" d="M256.74,288.83a123.59,123.59,0,0,1,65.65-72.62" transform="translate(-75.82 -213.95)"/><path class="cls-1" d="M265.47,286.89a121.48,121.48,0,0,1,71.14-68.36" transform="translate(-75.82 -213.95)"/><path class="cls-1" d="M273.73,285.55a120.1,120.1,0,0,1,75-64.27" transform="translate(-75.82 -213.95)"/><path class="cls-1" d="M283.4,284.58A113.36,113.36,0,0,1,363,225.46" transform="translate(-75.82 -213.95)"/><path class="cls-1" d="M293.56,284.24a105.75,105.75,0,0,1,83.89-53.43" transform="translate(-75.82 -213.95)"/><path class="cls-1" d="M302.31,284.5a113.47,113.47,0,0,1,88.43-47.71" transform="translate(-75.82 -213.95)"/><path class="cls-1" d="M311.24,285.28a127.41,127.41,0,0,1,92.54-41.54" transform="translate(-75.82 -213.95)"/><path class="cls-1" d="M318.73,286.36a130.67,130.67,0,0,1,97.89-34.58" transform="translate(-75.82 -213.95)"/><path class="cls-1" d="M328.44,288.35a130.61,130.61,0,0,1,97.66-29.8" transform="translate(-75.82 -213.95)"/><path class="cls-1" d="M338.33,291.09A129.59,129.59,0,0,1,437.72,268" transform="translate(-75.82 -213.95)"/><path class="cls-1" d="M345.89,293.71a139.07,139.07,0,0,1,101.23-17.06" transform="translate(-75.82 -213.95)"/><path class="cls-1" d="M355,297.5a122.11,122.11,0,0,1,105.56-6.41" transform="translate(-75.82 -213.95)"/><path class="cls-1" d="M364.58,302.28a118.89,118.89,0,0,1,106.24,1.84" transform="translate(-75.82 -213.95)"/><path class="cls-1" d="M373.13,307.34a119.62,119.62,0,0,1,105.15,7.78" transform="translate(-75.82 -213.95)"/><path class="cls-1" d="M378.77,311.13a135.23,135.23,0,0,1,106.11,15.15" transform="translate(-75.82 -213.95)"/><path class="cls-1" d="M387.3,317.63A125.74,125.74,0,0,1,491.8,340" transform="translate(-75.82 -213.95)"/><path class="cls-1" d="M393.45,323a140.21,140.21,0,0,1,104.84,32.81" transform="translate(-75.82 -213.95)"/><path class="cls-1" d="M400.67,330.09A140.19,140.19,0,0,1,502.8,369.66" transform="translate(-75.82 -213.95)"/><path class="cls-1" d="M407.8,338.22a131.46,131.46,0,0,1,98.79,46.89" transform="translate(-75.82 -213.95)"/><path class="cls-1" d="M414,346.44a128.12,128.12,0,0,1,95.11,53.75" transform="translate(-75.82 -213.95)"/><path class="cls-1" d="M419.18,354.37a125.42,125.42,0,0,1,91.39,61.57" transform="translate(-75.82 -213.95)"/><path class="cls-1" d="M424.46,363.88a124.34,124.34,0,0,1,86.11,66.42" transform="translate(-75.82 -213.95)"/><path class="cls-1" d="M428.81,373.32A119.41,119.41,0,0,1,509.67,450" transform="translate(-75.82 -213.95)"/><path class="cls-1" d="M432.5,383.23a124.45,124.45,0,0,1,75,81.61" transform="translate(-75.82 -213.95)"/><path class="cls-1" d="M435.14,392.2a124.23,124.23,0,0,1,69.21,87.25" transform="translate(-75.82 -213.95)"/><path class="cls-1" d="M437.28,401.9a124.42,124.42,0,0,1,63.49,89.93" transform="translate(-75.82 -213.95)"/><path class="cls-1" d="M438.72,411.64a121.8,121.8,0,0,1,57,94.05" transform="translate(-75.82 -213.95)"/><path class="cls-1" d="M438.72,421.41a118.49,118.49,0,0,1,51.41,97" transform="translate(-75.82 -213.95)"/><path class="cls-1" d="M439.52,431.93a123.39,123.39,0,0,1,43.47,100" transform="translate(-75.82 -213.95)"/><path class="cls-1" d="M438.86,441.82A129.29,129.29,0,0,1,477,541.65" transform="translate(-75.82 -213.95)"/><path class="cls-1" d="M437.28,450a126.12,126.12,0,0,1,32.46,102.21" transform="translate(-75.82 -213.95)"/><path class="cls-1" d="M435.93,459.44a125.78,125.78,0,0,1,24.06,105" transform="translate(-75.82 -213.95)"/><path class="cls-1" d="M433.06,469.9a123.94,123.94,0,0,1,19.57,102.7" transform="translate(-75.82 -213.95)"/><path class="cls-1" d="M429.65,479.45a121.39,121.39,0,0,1,11.78,104.11" transform="translate(-75.82 -213.95)"/><path class="cls-1" d="M425.64,488.57a117.11,117.11,0,0,1,5.46,103.82" transform="translate(-75.82 -213.95)"/><path class="cls-1" d="M421.61,496.3a130.72,130.72,0,0,1,1.55,102.17" transform="translate(-75.82 -213.95)"/><path class="cls-1" d="M416.54,504.67a114.27,114.27,0,0,1-8.23,103.73" transform="translate(-75.82 -213.95)"/><path class="cls-1" d="M410.39,513.33a113.48,113.48,0,0,1-14.93,102.33" transform="translate(-75.82 -213.95)"/><path class="cls-1" d="M404.82,520.15a134.6,134.6,0,0,1-22.85,102" transform="translate(-75.82 -213.95)"/><path class="cls-1" d="M397.17,528.32a124.51,124.51,0,0,1-26.81,98.48" transform="translate(-75.82 -213.95)"/><path class="cls-1" d="M389.68,535.21a121.93,121.93,0,0,1-34.94,96.72" transform="translate(-75.82 -213.95)"/><path class="cls-1" d="M382,541.39a116.11,116.11,0,0,1-40.79,94" transform="translate(-75.82 -213.95)"/><path class="cls-1" d="M375,546.28a126.9,126.9,0,0,1-45.41,91.3" transform="translate(-75.82 -213.95)"/><path class="cls-1" d="M366.49,551.49a120.33,120.33,0,0,1-51.25,88" transform="translate(-75.82 -213.95)"/><path class="cls-1" d="M356.76,556.53a104.68,104.68,0,0,1-57.82,83.9" transform="translate(-75.82 -213.95)"/><path class="cls-1" d="M348.76,560a113.93,113.93,0,0,1-61.63,80.39" transform="translate(-75.82 -213.95)"/><path class="cls-1" d="M340.11,562.82a119.65,119.65,0,0,1-63.34,77" transform="translate(-75.82 -213.95)"/><path class="cls-1" d="M331.63,565.68a116.23,116.23,0,0,1-70.06,72.52" transform="translate(-75.82 -213.95)"/><path class="cls-1" d="M323.12,567.66a113.87,113.87,0,0,1-75.59,68" transform="translate(-75.82 -213.95)"/><path class="cls-1" d="M313.83,569.23a116.9,116.9,0,0,1-80.44,63" transform="translate(-75.82 -213.95)"/></g></svg>